<svg xmlns="http://www.w3.org/2000/svg" viewBox="0 0 467.5 458.75"><path fill="#010101" d="M185.57 455.67c-29.5-3.7-61.3-16.52-85.82-34.63-6.6-4.88-23.4-20.62-41.7-39.05-18.72-18.9-32.65-32-35.85-33.6-4.98-2.6-11.64-9.6-11.64-12.4 0-.7-1.13-2.7-2.5-4.5-1.4-1.78-3.4-7.15-4.5-11.97-6.1-27.1 10.35-47.8 46.3-58.2 28.8-8.36 63.75-11.06 82.58-6.4 14.04 3.47 23.45 8.53 29.9 16.1 9.12 10.66 9.75 13.1 10.8 41.4 1.06 28 3.33 39.74 9.92 51.26 10.77 18.83 31.9 26.8 56.96 21.5 12.55-2.67 20.13-6.6 28.22-14.64 16.04-15.95 25.8-48.14 21.7-71.58-2.02-11.68-1.17-15.5 4.87-22.2 2.6-2.8 4.8-6.8 5.3-9.56.5-2.6.6-15.44.1-28.56-.9-27.7-.5-29.37 8-29.37 4.5 0 5.2-.46 7.5-4.96 3.2-6.3 3.2-13.8 0-20.06-3.2-6.3-3.13-9 .3-15 2.7-4.7 2.7-4.97.6-9.36-2.92-6.2-2.7-14.67 1-36.5 6.83-40.4 15.97-62 33.3-78.77 13.2-12.8 25-18.24 64.44-29.87 14.6-4.3 28.55-9.06 31-10.6 5.3-3.25 13.15-3.54 17.6-.64 4.22 2.8 3.75 6-1.56 10.67-3.93 3.46-5.22 3.9-9.2 3.28-4.6-.76-14.06 2.36-46.86 15.44-25.5 10.16-37.7 19.45-45 34.23-6.5 13.14-8.16 24.8-7.8 55.03l.28 25.13-4.16 8.45c-4.5 9.24-4.6 8.2 1.58 16.46.67.9-.36 4.78-2.7 10.16-2.1 4.77-4.63 11.58-5.67 15.1-2.27 7.76-.8 11 5.7 12.38 8.77 1.87 8.85 2.93 2.8 36.3-2.4 13.3-4.36 25.37-4.36 26.83 0 1.45 1.95 4.4 4.4 6.5 4.83 4.3 5.5 8 2.3 12.9-1.68 2.5-2.15 7.03-2.4 22.77-.26 16.23-.86 21.7-3.45 31.6-7.2 27.6-20.36 49.8-42.57 71.86-19.03 18.95-35.65 28.66-58.9 34.45-11.7 2.9-45.44 4.17-60.64 2.27z"/></svg>
