<svg xmlns="http://www.w3.org/2000/svg" viewBox="0 0 467.5 458.8"><path fill="#010101" d="M185.6 455.7C156 452 124.3 439.2 99.8 421c-6.7-4.8-23.5-20.6-41.7-39-18-19-32-32-35-33.6-5-2.4-11-9.6-11-12.4l-3-4c-2-2-4-7-5-12-6-27 11-47.8 47-58 28.7-8.5 63.7-11.3 82.5-6.6 14 3.6 23.5 8.6 30 16.2 9 10.7 9.7 13 10.8 41.4 1 28 3.4 39.6 10 51.2 10 18.8 31.4 26.8 56.4 21.3C253.3 383 261 379 269 371c16-16 25.7-48 21.7-72-2-12-1-16 5-22 2.4-3 4.6-7 5.2-10 1-3 1-16 0-29 0-28 0-30 8-30 5 0 6-.6 8-5 3-6 4-13.8 0-20-3-6.4-3-9 1-15 3-4.8 3-5 1-9.4-3-6-3-14.7 1-36.5 7-40.5 16-62 33.3-79 13-13 25-18.2 64-30 14.8-4 28.7-9 31-10.4 5-3 13-3 17.7-.3 4 2.7 3.7 6-1.7 10.6-4 3.4-5 4-9 3.3-4.6-1-14 2-47 15-26.3 11-38.5 20-46 35-6.3 13-8 25-8 55l.7 25-4 8.6c-5 9.3-5 8.3 1 16.6.5 1-.5 4.6-3 10-2 5-4.6 11.6-5.6 15-2.5 7.8-1 11 5.5 12.4 8.4 2 8.5 3 2.5 36.4-2 13-4 25-4 27s2 4 4 6c5 4 5.7 8 2 13-1 2-2 7-2 22 0 16-.5 21.3-3 31.2-7.7 27.6-21 50-43 72-19 19-35.7 28.5-59 34.3-11.7 3-45.4 4-60.6 2z"/></svg>
