<svg xmlns="http://www.w3.org/2000/svg" viewBox="90 0 375 460"><path d="M307.8 453c-16.5-2.5-19.8-3.5-33-10-12.5-6.3-20-11.3-35.8-24-15.2-12.3-24.3-17.5-39.2-22.4l-10-3.3-33.5-.2c-36.6 0-39.2-.5-53.7-6.5-5.8-2.4-7.3-3.4-7.3-5 0-1.3 4.7-12 10.6-23.8 10-20.8 10.5-21.8 11.8-31.7.8-6.3 2-11.8 3.5-14.4 2.6-5 28.4-42.3 31.8-46 1.6-1.7 5.4-3.7 9-5 7-2.3 8.3-3.8 8.3-10 0-4.8-1.4-7.8-8.8-18.3-3-4.4-7.5-11.6-9.8-16l-4-8-4 .2c-2 .2-10 2.8-17.4 5.7-15 6-21 7.5-23.5 5.5-2.4-2-1.8-3.6 3.4-9.3 2.6-3 7.2-9.3 10.2-14.2 3-5 7.2-11.7 9.4-15 2.3-3.3 5.3-9 6.8-12.7 2.5-6.2 2.7-8 3.7-33 .6-14.4 1.7-30 2.5-35 2.5-16 11.5-32.3 23.4-42.5 12-10.3 25-23.6 28.2-28.4 4.8-7.5 9.5-9 31.4-10 22.5-1 32.6-3 44-8 11.4-5 22-6.8 30.3-5 11 2.2 13.5 9.7 6 17.8-1 1.2-1.7 3-1.4 3.7.4 1 3.4 3 7 5 6.8 3.5 19.5 15 31.5 28.7 9 10 14.3 20.5 17 33 3 14.4 4.2 16.2 29 40.4 22.4 22 24.3 24.4 21 27.5-1.6 1.7-8.5 1.5-30.4-1-21-2.3-24-2-26 2.8-2 4.4-1.4 6.4 4.7 12.5 3.2 3.3 6.8 8 8 10.2 8.7 19 15.3 33.6 15.7 35.8.4 2 0 3.2-1.8 4.8-2.6 2.4-3.8 2.5-12.3 1-13-2.4-15 .5-11.6 15 1.2 5.3 2.6 10.3 3 11.2.6 1 2.8 2 6.2 2.3 9 1.3 14.8 3.7 19.2 8.2 4.3 4.5 4.8 5.5 14.5 25.7 6 12.3 6 12.7 6 21 0 11 4.6 26.5 9.2 31l3 3 2-2.2c1.6-2 1.8-4 1.8-16.2v-13.8l3.8-2.5c3-2 5-2.6 10.2-2.6 6.6 0 20.4 3 25.4 5.7 3 1.5 3 1.6 2.5 8.6-.4 9-6.8 29.2-11 35.5-1.8 2.5-5.7 6.4-9 8.6-7.8 5.6-14.4 6-24.8 2.2-14.2-5.5-20.2-13.8-24.4-34-1-4-3.3-10.2-6-15-4-7.5-4.2-8.6-5-18.4-.6-12-2.6-17.3-9.2-25.7-5.4-6.6-11.4-9.6-16.5-8.2-4 1-10 6.3-9.4 8.2l3.3 10.5c4.4 15.2 1.7 21.8-11 25.8L331 314l-15-4.3c-8.2-2.3-18.2-4.4-22-4.7-7-.5-7.2-.5-9.2 2.3-3 4.2-4 8.7-4.8 18.7-.7 8.7-.7 8.7 2.3 12 4.2 4.8 5 9.8 2.4 17-2.7 8-3.4 13.7-2 17.2 1.7 4.6 9.7 16.2 15.6 22.5 5.4 6 8.3 11.2 8.3 15.2 0 1.2 2 3.8 4.6 6.4 3.2 3.2 5 6 6 9.6.8 3 3.7 8.7 6.5 13 4.3 6.5 5 8 4.6 12-.2 5.3-.2 5.3-20.2 2zm-97-424.8c2.6-1.5 2.5-4 0-5-2.2-.7-10.6 1-11.6 2.7-.4.6-.8 2-.8 3 0 1.8.5 2 5 1.4 3-.3 6.2-1.3 7.5-2zm83-9.5c.4-.5.5-1.6.2-2.4-.4-1-2-1.6-5.5-1.6-5.3 0-8 1.8-6.8 4.6.6 1.4 1.6 1.6 6 1 2.8-.4 5.5-1 6-1.6z"/></svg>
