<?xml version="1.0" encoding="UTF-8" standalone="no"?><svg
   xmlns:svg="http://www.w3.org/2000/svg"
   xmlns="http://www.w3.org/2000/svg"
   xmlns:xlink="http://www.w3.org/1999/xlink"
   version="1.1"
   viewBox="90 0 375 460"
>
<path style="fill:#000" d="m 307.83897,453.13801 c -16.56065,-2.63323 -19.8459,-3.64778 -33,-10.19104 -12.53251,-6.23407 -19.9843,-11.2217 -35.83243,-23.98338 -15.23372,-12.26693 
-24.30496,-17.4429 -39.16757,-22.3487 l -10,-3.30077 -33.526,-0.21147 c -36.6083,-0.23091 -39.25519,-0.55409 -53.724,-6.55968 -5.807249,-2.41042 -7.254063,-3.43845 -7.270383,-5.16595 
-0.0112,-1.18617 4.733863,-11.83168 10.544613,-23.65668 10.21121,-20.78004 10.60935,-21.84133 11.88964,-31.69288 0.82358,-6.33726 2.15471,-11.78538 3.51903,-14.40289 2.67613,-5.13426 
28.38759,-42.33571 31.87955,-46.12594 1.43343,-1.55586 5.22768,-3.62692 8.85782,-4.83495 7.04381,-2.34403 8.32973,-3.87658 8.32973,-9.92726 0,-4.91507 -1.46027,-7.95382 -8.88311,-18.48529 
-3.08929,-4.38307 -7.4686,-11.58307 -9.73179,-16 l -4.11491,-8.03079 -3.88509,0.31688 c -2.13681,0.17429 -9.97221,2.74042 -17.41202,5.70251 -15.05735,5.99496 -21.14022,7.41671 
-23.46766,5.48511 -2.40191,-1.99341 -1.81524,-3.64121 3.31222,-9.30314 2.64971,-2.92589 7.23913,-9.34315 10.19871,-14.26058 2.95959,-4.91743 7.22883,-11.65346 9.48721,-14.96895 
2.25838,-3.31549 5.30237,-9.01627 6.76441,-12.66838 2.50949,-6.26859 2.71843,-8.1139 3.73343,-32.97183 0.59134,-14.48239 1.68641,-30.19925 2.43348,-34.92635 2.54247,-16.087524 
11.48886,-32.404574 23.39158,-42.663185 11.95265,-10.301647 25.18541,-23.585489 28.24606,-28.3551 4.81274,-7.499999 9.45437,-8.981024 31.42748,-10.027698 22.48778,-1.07119 32.52331,-2.8889 
44,-7.969607 11.35526,-5.0269603 21.98172,-6.8226703 30.25794,-5.1131503 10.90724,2.25298 13.41736,9.7627323 5.99058,17.9225893 -1.10085,1.209515 -1.7501,2.854379 -1.44278,3.655252 
0.30733,0.800873 3.40176,2.959734 6.87652,4.797469 6.90938,3.654241 19.59987,15.23184 31.62119,28.84816 8.90076,10.081726 14.19159,20.485806 16.78163,32.999996 2.97736,14.385624 
4.26382,16.173854 29.03068,40.353754 22.43423,21.90256 24.30463,24.32586 21.18424,27.44625 -1.71585,1.71585 -8.66259,1.50406 -30.51581,-0.93035 -21.07503,-2.34772 -23.97264,-2.04361 
-26.15447,2.74499 -2.00999,4.41146 -1.25113,6.38633 4.78973,12.4648 3.25569,3.27598 6.81506,7.86077 7.90969,10.18844 8.87926,18.88113 15.40176,33.63664 15.84225,35.83908 0.38109,1.90544 
-0.10461,3.21874 -1.76115,4.76204 -2.63247,2.45252 -3.89153,2.5526 -12.39688,0.98543 -12.72718,-2.34508 -14.87745,0.50316 -11.4341,15.14557 1.22872,5.225 2.59719,10.22736 3.04105,11.11635 
0.51271,1.02692 2.73476,1.86075 6.09335,2.28655 9.15987,1.16129 14.81874,3.55058 19.20677,8.10948 4.29449,4.46172 4.86902,5.47671 14.52083,25.65277 5.92112,12.37748 6.05874,12.85537 
6.05874,21.03976 0,10.96256 4.61126,26.56019 9.21252,31.16145 l 3.04,3.04001 1.87374,-2.31397 c 1.63012,-2.01312 1.87374,-4.1151 1.87374,-16.16713 l 0,-13.85317 3.73213,-2.53605 c 
3.02684,-2.05679 4.9324,-2.53605 10.08339,-2.53605 6.65537,0 20.4735,3.06386 25.46915,5.64721 2.88987,1.49441 2.92079,1.60115 2.5151,8.6829 -0.51251,8.94627 -6.88943,29.11369 
-11.21995,35.48379 -1.6939,2.49169 -5.65712,6.33594 -8.80714,8.54277 -7.86185,5.50783 -14.50554,6.06662 -24.90075,2.09439 -14.22721,-5.43652 -20.22531,-13.73869 -24.4559,-33.85025 
-0.85888,-4.08297 -3.28287,-10.3584 -5.81395,-15.05165 -4.09448,-7.59217 -4.37777,-8.64244 -4.98961,-18.49883 -0.73899,-11.90449 -2.69961,-17.26831 -9.38455,-25.67406 -5.3156,-6.68392 
-11.33555,-9.73756 -16.42584,-8.33207 -4.27176,1.17949 -10.23913,6.3745 -9.50869,8.27797 0.27869,0.72626 1.73395,5.40976 3.23391,10.40778 4.5706,15.22971 1.80872,21.865 -10.74079,25.80425 l 
-5.28651,1.65942 -15,-4.19382 c -8.25,-2.3066 -18.1929,-4.42988 -22.09533,-4.71839 -6.93156,-0.51246 -7.14187,-0.45829 -9.1112,2.34701 -2.89263,4.12053 -4.08012,8.67603 -4.85015,18.6063 
-0.67458,8.69926 -0.66508,8.74868 2.33811,12.16913 4.11398,4.68556 4.79938,9.64101 2.32476,16.80796 -2.73705,7.92697 -3.45867,13.74835 -2.13475,17.22106 1.77294,4.65051 9.81756,16.22523 
15.67094,22.54758 5.44457,5.88078 8.35762,11.1644 8.35762,15.15885 0,1.31104 1.85032,3.97645 4.56835,6.58079 3.30901,3.17058 4.98524,5.81109 6.08062,9.57858 0.83174,2.86073 3.754,8.64508 
6.4939,12.85411 4.33988,6.66693 4.9414,8.2128 4.66938,12 -0.39086,5.4417 -0.35685,5.43791 -20.31225,2.26489 z M 210.93331,28.250486 c 2.43251,-1.593845 2.34921,-3.954095 -0.17373,-4.922237 
-2.18044,-0.836713 -10.56182,1.006937 -11.531,2.53647 -0.47244,0.745592 -0.86588,2.205802 -0.8743,3.244912 -0.0137,1.686847 0.53401,1.824232 5.11117,1.282135 2.81957,-0.333936 
6.1801,-1.297512 7.46786,-2.14128 z m 82.78844,-9.524598 c 0.48553,-0.479112 0.61216,-1.576361 0.28139,-2.438331 -0.43303,-1.128444 -1.97575,-1.567217 -5.51034,-1.567217 -5.27408,0 
-7.84463,1.757428 -6.74853,4.613817 0.52167,1.359442 1.52236,1.5218 5.86188,0.951066 2.87805,-0.378522 5.63007,-1.080222 6.1156,-1.559335 z" />
 
</svg>
