<svg xmlns="http://www.w3.org/2000/svg" viewBox="90 0 375 460"><path d="M307.84 453.138c-16.562-2.633-19.847-3.648-33-10.19-12.534-6.235-19.985-11.223-35.833-23.984-15.234-12.267-24.305-17.443-39.168-22.35l-10-3.3-33.527-.21c-36.608-.232-39.255-.555-53.724-6.56-5.808-2.41-7.255-3.44-7.27-5.167-.013-1.186 4.732-11.832 10.543-23.657 10.21-20.78 10.61-21.84 11.89-31.693.823-6.337 2.155-11.785 3.52-14.402 2.675-5.135 28.386-42.336 31.878-46.126 1.435-1.557 5.23-3.628 8.86-4.836 7.043-2.344 8.33-3.877 8.33-9.928 0-4.915-1.46-7.953-8.884-18.485-3.09-4.382-7.47-11.582-9.732-16l-4.115-8.03-3.886.317c-2.137.175-9.972 2.74-17.412 5.703-15.057 5.995-21.14 7.416-23.468 5.485-2.402-1.994-1.815-3.64 3.313-9.303 2.65-2.926 7.24-9.343 10.198-14.26 2.96-4.918 7.23-11.654 9.488-14.97 2.258-3.315 5.302-9.016 6.764-12.668 2.51-6.27 2.718-8.114 3.733-32.972.592-14.482 1.687-30.2 2.434-34.926 2.542-16.088 11.49-32.405 23.39-42.664 11.954-10.3 25.187-23.585 28.247-28.355 4.814-7.5 9.456-8.98 31.43-10.027 22.487-1.072 32.522-2.89 44-7.97 11.354-5.027 21.98-6.823 30.257-5.113 10.907 2.253 13.417 9.763 5.99 17.922-1.1 1.21-1.75 2.854-1.442 3.655.307.8 3.4 2.96 6.876 4.797 6.91 3.654 19.6 15.232 31.622 28.848 8.9 10.082 14.192 20.486 16.782 33 2.977 14.386 4.264 16.174 29.03 40.354 22.435 21.903 24.305 24.326 21.185 27.446-1.717 1.716-8.664 1.504-30.517-.93-21.075-2.348-23.972-2.044-26.154 2.745-2.01 4.41-1.252 6.386 4.788 12.465 3.256 3.276 6.815 7.86 7.91 10.188 8.88 18.88 15.402 33.637 15.842 35.84.38 1.905-.104 3.218-1.76 4.76-2.633 2.454-3.892 2.554-12.398.987-12.727-2.345-14.877.503-11.434 15.145 1.23 5.225 2.597 10.228 3.04 11.117.514 1.027 2.736 1.86 6.095 2.286 9.16 1.162 14.818 3.55 19.206 8.11 4.294 4.46 4.868 5.476 14.52 25.652 5.92 12.378 6.06 12.856 6.06 21.04 0 10.963 4.61 26.56 9.21 31.162l3.04 3.04 1.875-2.314c1.63-2.013 1.874-4.115 1.874-16.167v-13.854l3.73-2.536c3.028-2.056 4.934-2.536 10.084-2.536 6.656 0 20.474 3.064 25.47 5.648 2.89 1.494 2.92 1.6 2.515 8.682-.514 8.947-6.89 29.114-11.22 35.484-1.695 2.492-5.658 6.336-8.808 8.543-7.862 5.508-14.506 6.067-24.9 2.094-14.228-5.435-20.226-13.737-24.457-33.85-.86-4.082-3.283-10.357-5.814-15.05-4.093-7.593-4.377-8.643-4.99-18.5-.738-11.904-2.698-17.268-9.383-25.673-5.316-6.684-11.336-9.738-16.426-8.332-4.27 1.18-10.238 6.374-9.508 8.278.28.726 1.734 5.41 3.234 10.407 4.57 15.23 1.81 21.865-10.74 25.805l-5.287 1.66-15-4.195c-8.25-2.306-18.194-4.43-22.096-4.718-6.932-.513-7.142-.46-9.112 2.347-2.892 4.12-4.08 8.675-4.85 18.605-.674 8.7-.665 8.75 2.338 12.17 4.114 4.685 4.8 9.64 2.325 16.807-2.737 7.927-3.46 13.748-2.135 17.22 1.773 4.652 9.818 16.226 15.67 22.55 5.446 5.88 8.36 11.163 8.36 15.158 0 1.31 1.85 3.976 4.567 6.58 3.31 3.17 4.986 5.812 6.08 9.58.833 2.86 3.755 8.644 6.495 12.853 4.34 6.667 4.94 8.213 4.67 12-.392 5.442-.358 5.438-20.313 2.265zM210.932 28.25c2.433-1.593 2.35-3.954-.173-4.922-2.18-.836-10.562 1.007-11.53 2.537-.474.745-.867 2.206-.876 3.245-.013 1.686.534 1.824 5.11 1.282 2.82-.334 6.182-1.298 7.47-2.142zm82.79-9.524c.484-.48.61-1.576.28-2.438-.433-1.13-1.976-1.568-5.51-1.568-5.274 0-7.845 1.758-6.75 4.614.523 1.36 1.524 1.522 5.863.95 2.878-.377 5.63-1.08 6.116-1.558z"/></svg>